<svg xmlns="http://www.w3.org/2000/svg" xmlns:xlink="http://www.w3.org/1999/xlink" viewBox="0 0 30 30" fill="#5B5B5B">
  <path d="M15,3C8.373,3,3,8.373,3,15c0,6.627,5.373,12,12,12s12-5.373,12-12C27,8.373,21.627,3,15,3z M15,25c-3.662,0-6-2-6-2 c0-3.125,4.098-2.609,4.75-4.374V18c-2.361,0-3.696-1.178-3.696-1.178c1.234-1.027-0.475-8.17,3.727-8.17 C13.781,8.652,14.267,8,15,8c5.136,0,3.524,7.756,4.853,8.846c0,0-1.23,1.154-3.603,1.154v0.626C16.902,20.391,21,19.875,21,23 C21,23,18.662,25,15,25z" fill="#5B5B5B" />
</svg>