<svg xmlns="http://www.w3.org/2000/svg" xmlns:xlink="http://www.w3.org/1999/xlink" viewBox="0 0 50 50" fill="#5B5B5B">
  <path d="M21 4C11.082241 4 3 12.082241 3 22C3 31.917759 11.082241 40 21 40C24.62177 40 27.99231 38.91393 30.820312 37.0625L43.378906 49.621094L47.621094 45.378906L35.224609 32.982422C37.581469 29.938384 39 26.13473 39 22C39 12.082241 30.917759 4 21 4 z M 21 8C28.756241 8 35 14.243759 35 22C35 29.756241 28.756241 36 21 36C13.243759 36 7 29.756241 7 22C7 14.243759 13.243759 8 21 8 z" fill="#5B5B5B" />
</svg>